<svg width="20" height="21" viewBox="0 0 20 21" fill="none" xmlns="http://www.w3.org/2000/svg">
<path d="M16.9306 10.3662C16.9306 9.93424 16.759 9.51996 16.4536 9.21451C16.1481 8.90906 15.7339 8.73746 15.3019 8.73746C15.2447 8.7374 15.1875 8.74032 15.1306 8.74621L17.3681 2.14746H7.86001L10.0944 8.74059C10.0619 8.74059 10.0288 8.73746 9.99564 8.73746C9.60669 8.73702 9.23042 8.87577 8.93489 9.12863C8.63936 9.38149 8.44407 9.73177 8.38434 10.1161C8.32461 10.5004 8.40439 10.8935 8.60925 11.2241C8.81411 11.5547 9.13052 11.8011 9.50126 11.9187C9.15479 12.5153 8.7234 13.0582 8.22064 13.5306C7.56618 14.1562 6.78864 14.6387 5.93751 14.9475C5.46064 14.7215 5.08768 14.3224 4.8944 13.8314C4.70112 13.3403 4.70201 12.7941 4.89689 12.3037C4.94501 12.1912 4.99376 12.0775 5.04001 11.9637C5.40317 11.8782 5.72598 11.6706 5.95449 11.3757C6.183 11.0808 6.30338 10.7164 6.29551 10.3434C6.28764 9.97035 6.152 9.61133 5.91125 9.32631C5.6705 9.04129 5.33923 8.84753 4.97278 8.7774C4.60634 8.70726 4.22693 8.76501 3.89795 8.94099C3.56897 9.11698 3.31035 9.40053 3.1653 9.74427C3.02025 10.088 2.99757 10.4711 3.10103 10.8296C3.2045 11.188 3.42785 11.5001 3.73376 11.7137C3.21386 12.6564 2.81708 13.6619 2.55314 14.7056C2.33189 16.04 2.55314 17.4556 3.70626 18.2562C6.39376 20.1193 9.31189 17.1012 12.3881 16.3431C13.5031 16.0681 14.7269 16.1125 15.7088 15.5437C16.0635 15.3417 16.3694 15.064 16.6048 14.7305C16.8401 14.3969 16.9992 14.0156 17.0706 13.6137C17.136 13.2307 17.1237 12.8385 17.0344 12.4604C16.9452 12.0822 16.7809 11.7259 16.5513 11.4125C16.7963 11.1196 16.9304 10.7499 16.93 10.3681L16.9306 10.3662ZM11.625 10.375V10.3693C11.6255 10.089 11.5534 9.8134 11.4159 9.56918C11.2783 9.32496 11.0799 9.12047 10.84 8.97559L12.6175 5.37496L14.3988 9.00871C14.1753 9.15721 13.9921 9.35872 13.8655 9.59527C13.7388 9.83182 13.6728 10.096 13.6731 10.3643V10.4L11.625 10.375Z" fill="#C63D14"/>
<path d="M17.3286 10.3663C17.328 9.89399 17.1627 9.43673 16.8612 9.07326C16.5596 8.70978 16.1408 8.46285 15.6768 8.375L17.923 1.75H7.3055L9.5555 8.38813C9.1627 8.47592 8.80496 8.67875 8.52793 8.97073C8.25089 9.26271 8.06712 9.6306 8.00006 10.0275C7.93299 10.4243 7.98569 10.8322 8.1514 11.199C8.31712 11.5658 8.58836 11.8749 8.9305 12.0869C8.64786 12.5068 8.31915 12.8938 7.9505 13.2406C7.37986 13.7866 6.70929 14.2174 5.9755 14.5094C5.63114 14.3095 5.37011 13.9925 5.24 13.6161C5.1099 13.2398 5.11939 12.8293 5.26675 12.4594L5.29175 12.4012L5.338 12.2919C5.75456 12.1475 6.11271 11.8712 6.35822 11.505C6.60372 11.1388 6.72322 10.7026 6.69861 10.2624C6.674 9.82224 6.50662 9.40206 6.22182 9.06551C5.93702 8.72897 5.55031 8.49439 5.12025 8.39731C4.6902 8.30022 4.24022 8.34592 3.83846 8.52747C3.4367 8.70903 3.10504 9.01655 2.89371 9.40348C2.68238 9.79041 2.60288 10.2357 2.66726 10.6718C2.73164 11.108 2.93639 11.5113 3.2505 11.8206C3.183 11.965 3.11175 12.1112 3.03863 12.2619C2.6334 13.007 2.33865 13.807 2.16363 14.6369C1.873 16.3869 2.34175 17.7887 3.483 18.5794C4.09566 19.0175 4.83045 19.2521 5.58363 19.25C6.91613 19.25 8.26425 18.5806 9.58363 17.9256C10.5055 17.4243 11.478 17.0224 12.4849 16.7269C12.8455 16.6381 13.2168 16.5844 13.6099 16.5275C14.4108 16.4635 15.1918 16.2453 15.9099 15.885C16.3148 15.6537 16.664 15.3361 16.9326 14.9549C17.2012 14.5736 17.3827 14.138 17.4643 13.6788C17.597 12.8986 17.4437 12.0967 17.0324 11.4206C17.2269 11.1032 17.3297 10.738 17.3293 10.3656L17.3286 10.3663ZM16.533 10.3663C16.533 10.6098 16.4608 10.8478 16.3255 11.0503C16.1902 11.2528 15.9979 11.4106 15.7729 11.5038C15.548 11.597 15.3004 11.6214 15.0615 11.5738C14.8227 11.5263 14.6033 11.4091 14.4311 11.2369C14.2589 11.0647 14.1417 10.8453 14.0942 10.6065C14.0467 10.3676 14.071 10.1201 14.1642 9.89507C14.2574 9.67009 14.4152 9.47779 14.6177 9.3425C14.8202 9.20721 15.0582 9.135 15.3018 9.135C15.6282 9.13533 15.9412 9.26516 16.172 9.49599C16.4028 9.72682 16.5327 10.0398 16.533 10.3663ZM16.8124 2.54562L14.8286 8.39563C14.7437 8.41618 14.6602 8.44227 14.5786 8.47375L12.6193 4.47375L10.6536 8.45C10.5681 8.42035 10.4806 8.39654 10.3918 8.37875L8.41488 2.54562H16.8124ZM9.9955 9.135C10.239 9.135 10.4771 9.20721 10.6795 9.3425C10.882 9.47779 11.0398 9.67009 11.133 9.89507C11.2262 10.1201 11.2506 10.3676 11.2031 10.6065C11.1556 10.8453 11.0383 11.0647 10.8661 11.2369C10.6939 11.4091 10.4745 11.5263 10.2357 11.5738C9.99687 11.6214 9.74931 11.597 9.52432 11.5038C9.29934 11.4106 9.10705 11.2528 8.97176 11.0503C8.83647 10.8478 8.76425 10.6098 8.76425 10.3663C8.76458 10.0398 8.89441 9.72682 9.12524 9.49599C9.35608 9.26516 9.66906 9.13533 9.9955 9.135ZM4.66925 9.14687C4.91288 9.147 5.15099 9.2194 5.35345 9.3549C5.55592 9.49041 5.71363 9.68293 5.80663 9.9081C5.89963 10.1333 5.92374 10.381 5.87591 10.6199C5.82808 10.8587 5.71045 11.0781 5.53792 11.2501C5.36539 11.4221 5.14571 11.539 4.90668 11.5861C4.66765 11.6332 4.42003 11.6084 4.19514 11.5147C3.97025 11.421 3.77821 11.2627 3.64332 11.0598C3.50843 10.857 3.43676 10.6186 3.43738 10.375C3.43771 10.0486 3.56754 9.73557 3.79837 9.50474C4.0292 9.27391 4.34218 9.14408 4.66863 9.14375L4.66925 9.14687ZM16.6799 13.5431C16.6181 13.8876 16.4813 14.2144 16.2792 14.5001C16.0772 14.7859 15.8147 15.0238 15.5105 15.1969C14.8793 15.5033 14.1958 15.6876 13.4961 15.74C13.1011 15.7969 12.693 15.8556 12.2936 15.9544C11.2305 16.2622 10.2037 16.6841 9.23113 17.2125C7.25363 18.1944 5.54363 19.0425 3.93613 17.9269C2.75675 17.1094 2.81113 15.5969 2.94863 14.7681C3.11044 14.0139 3.38031 13.2871 3.74988 12.61L3.91863 12.2606C4.08651 12.3277 4.26269 12.3719 4.44238 12.3919C4.28331 12.9537 4.32775 13.5537 4.56788 14.086C4.80801 14.6183 5.22839 15.0487 5.75488 15.3012L5.908 15.38L6.06988 15.3225C6.97281 14.9966 7.79772 14.4857 8.49175 13.8225C8.9502 13.3912 9.35291 12.9043 9.6905 12.3731C10.1225 12.4388 10.5641 12.3631 10.9495 12.1572C11.3349 11.9514 11.6434 11.6265 11.8289 11.2309C12.0145 10.8354 12.0672 10.3904 11.9792 9.96244C11.8912 9.53448 11.6671 9.14645 11.3405 8.85625L12.6143 6.28062L13.9011 8.90563C13.535 9.25849 13.315 9.7362 13.2849 10.2438C13.2548 10.7514 13.4168 11.2518 13.7386 11.6455C14.0605 12.0391 14.5187 12.2973 15.0222 12.3687C15.5256 12.44 16.0375 12.3194 16.4561 12.0306C16.6882 12.4991 16.7659 13.029 16.678 13.5444L16.6799 13.5431Z" fill="white"/>
</svg>
