<svg width="52" height="52" viewBox="0 0 52 52" fill="none" xmlns="http://www.w3.org/2000/svg">
<g clip-path="url(#clip0_2005_1885)">
<path d="M25.0732 8.93373e-06C24.6918 8.93373e-06 24.4015 0.0021756 24.2975 0.0151756C24.0349 0.0414397 23.772 0.0652741 23.5089 0.0866756C16.127 0.749676 9.20885 4.73418 4.82785 10.8593C2.40502 14.221 0.829976 18.1181 0.236686 22.2192C0.0286855 23.647 0.00268555 24.0695 0.00268555 26.0043C0.00268555 27.9392 0.0286855 28.3638 0.236686 29.7917C1.64935 39.5547 8.60002 47.7577 18.0229 50.7975C19.7107 51.3392 21.4895 51.7118 23.5132 51.935C24.2997 52.0217 27.7057 52.0217 28.4943 51.935C31.9848 51.5493 34.9445 50.6848 37.8609 49.1963C38.3094 48.9667 38.396 48.906 38.3354 48.854C38.292 48.8258 36.3853 46.2692 34.0995 43.1773L29.9417 37.5613L24.733 29.8523C23.0001 27.273 21.2509 24.7048 19.4853 22.1477C19.4659 22.1433 19.4464 25.5688 19.4355 29.7527C19.4204 37.076 19.4139 37.3685 19.3229 37.5418C19.2345 37.7449 19.0761 37.9095 18.8765 38.0055C18.714 38.0857 18.5732 38.1008 17.804 38.1008H16.9222L16.6882 37.9535C16.5435 37.8629 16.426 37.7349 16.348 37.583L16.2397 37.3533L16.2527 27.1635L16.2679 16.9693L16.4239 16.77C16.5304 16.6454 16.658 16.5405 16.8009 16.4602C17.0089 16.3583 17.0912 16.3497 17.9708 16.3497C19.0065 16.3497 19.1798 16.3887 19.4485 16.6833C21.557 19.8212 23.6479 22.9709 25.721 26.1322C29.1387 31.3119 32.5584 36.4902 35.9802 41.6672L40.0969 47.905L40.3048 47.7685C42.2868 46.4515 44.0838 44.8754 45.6479 43.082C48.9234 39.3327 51.0478 34.7181 51.7665 29.7917C51.9745 28.3617 52.0005 27.9413 52.0005 26.0043C52.0005 24.0695 51.9745 23.647 51.7665 22.2192C50.3539 12.4562 43.4053 4.25318 33.9825 1.21334C32.2207 0.653222 30.4066 0.273551 28.568 0.0801756C27.4046 0.0251126 26.24 -0.00161754 25.0753 8.93373e-06H25.0732ZM33.8893 15.6368C34.6412 15.6368 34.7734 15.6477 34.9424 15.7387C35.0634 15.7998 35.1711 15.8843 35.2592 15.9873C35.3474 16.0903 35.4142 16.2098 35.4559 16.3388C35.4949 16.4688 35.5057 19.2963 35.4949 25.6642L35.4818 34.8032L33.8699 32.3332L32.2535 29.8632V23.2202C32.2535 18.9258 32.2752 16.51 32.3033 16.3952C32.3397 16.2597 32.4031 16.1329 32.4899 16.0227C32.5767 15.9124 32.685 15.821 32.8082 15.7538C33.0162 15.6455 33.0898 15.6368 33.8915 15.6368H33.8893Z" fill="#272727"/>
</g>
<defs>
<clipPath id="clip0_2005_1885">
<rect width="52" height="52" fill="white"/>
</clipPath>
</defs>
</svg>
