<svg width="20" height="20" viewBox="0 0 20 20" fill="none" xmlns="http://www.w3.org/2000/svg">
<path d="M9.96752 1.25H10.0081C10.2163 1.34916 10.4191 1.45932 10.6156 1.58L17.4019 5.48375C17.4894 5.53046 17.5609 5.60239 17.607 5.69021C17.6531 5.77803 17.6718 5.87768 17.6606 5.97625C17.6556 8.71938 17.6606 11.4619 17.6575 14.2037C17.6281 14.3346 17.5481 14.4485 17.435 14.5206C15.0296 15.9056 12.624 17.2898 10.2181 18.6731C10.1598 18.7176 10.0896 18.7435 10.0164 18.7476C9.94319 18.7518 9.87044 18.7339 9.80752 18.6962C7.39919 17.3154 4.99314 15.9321 2.58939 14.5463C2.51127 14.5093 2.44584 14.4501 2.40135 14.376C2.35686 14.3019 2.3353 14.2163 2.33939 14.13V5.90312C2.3335 5.81719 2.35336 5.73144 2.39645 5.65685C2.43953 5.58226 2.50388 5.52221 2.58127 5.48438C4.84044 4.18521 7.0996 2.88521 9.35877 1.58438C9.56002 1.46938 9.75752 1.3475 9.96752 1.25Z" fill="#019639"/>
<path d="M5.47925 6.58623V13.3731C5.47637 13.4984 5.49848 13.623 5.5443 13.7397C5.59013 13.8563 5.65874 13.9627 5.74613 14.0525C5.91364 14.218 6.13282 14.321 6.36712 14.3444C6.60142 14.3679 6.83666 14.3103 7.03363 14.1812C7.16547 14.0916 7.27341 13.9712 7.34803 13.8303C7.42265 13.6895 7.46169 13.5325 7.46175 13.3731C7.46175 11.7356 7.45863 10.0981 7.46175 8.46061C8.95467 10.2481 10.4507 12.0331 11.9499 13.8156C12.1582 14.0266 12.4161 14.1819 12.7 14.2673C12.9839 14.3527 13.2848 14.3655 13.5749 14.3044C13.7797 14.264 13.9663 14.159 14.107 14.0047C14.2477 13.8505 14.3353 13.6552 14.3568 13.4475C14.3601 11.1387 14.3601 8.83019 14.3568 6.52186C14.3352 6.27546 14.2221 6.04607 14.0398 5.87896C13.8575 5.71184 13.6191 5.61914 13.3718 5.61914C13.1244 5.61914 12.8861 5.71184 12.7037 5.87896C12.5214 6.04607 12.4083 6.27546 12.3868 6.52186C12.3868 8.18561 12.3768 9.84748 12.3868 11.5106C10.9205 9.78186 9.47238 8.03811 8.01175 6.30311C7.81919 6.05619 7.56426 5.86509 7.27323 5.74952C6.98221 5.63394 6.66563 5.59807 6.35613 5.64561C6.12167 5.67171 5.90431 5.78093 5.74345 5.95349C5.58259 6.12605 5.48886 6.35052 5.47925 6.58623Z" fill="white"/>
</svg>
