<svg width="20" height="20" viewBox="0 0 20 20" fill="none" xmlns="http://www.w3.org/2000/svg">
<path d="M18.6773 3.84119L10.4635 18.5287C10.4249 18.5978 10.3687 18.6554 10.3006 18.6955C10.2324 18.7357 10.1548 18.7571 10.0757 18.7574C9.99656 18.7577 9.91878 18.737 9.85031 18.6973C9.78184 18.6577 9.72514 18.6006 9.68601 18.5318L1.30976 3.84244C1.26765 3.76874 1.24743 3.68455 1.25149 3.59976C1.25554 3.51497 1.28369 3.43309 1.33264 3.36374C1.38158 3.29438 1.4493 3.24043 1.52783 3.20821C1.60636 3.17598 1.69246 3.16683 1.77601 3.18181L9.99851 4.65181C10.0508 4.66123 10.1044 4.66123 10.1566 4.65181L18.2073 3.18431C18.2905 3.16911 18.3763 3.17787 18.4548 3.20959C18.5332 3.24131 18.601 3.29467 18.6503 3.36346C18.6995 3.43225 18.7282 3.51362 18.733 3.5981C18.7378 3.68257 18.7185 3.76666 18.6773 3.84056V3.84119Z" fill="url(#paint0_linear_2005_1528)"/>
<path d="M13.9148 1.25437L7.83735 2.445C7.7887 2.4545 7.74459 2.47993 7.712 2.51727C7.67941 2.55462 7.66018 2.60176 7.65735 2.65125L7.2836 8.96625C7.28153 9.00089 7.28758 9.03554 7.30126 9.06744C7.31493 9.09933 7.33586 9.1276 7.36238 9.14999C7.38889 9.17238 7.42027 9.18828 7.45401 9.19642C7.48774 9.20455 7.52291 9.20471 7.55672 9.19687L9.2486 8.80625C9.28505 8.79783 9.32303 8.7987 9.35905 8.8088C9.39507 8.8189 9.42797 8.83789 9.45474 8.86403C9.4815 8.89017 9.50126 8.92261 9.5122 8.95839C9.52314 8.99416 9.52491 9.03211 9.51735 9.06875L9.01485 11.5306C9.00709 11.5685 9.00933 11.6078 9.02133 11.6446C9.03333 11.6813 9.05468 11.7144 9.0833 11.7404C9.11192 11.7664 9.14681 11.7846 9.18455 11.793C9.2223 11.8015 9.2616 11.8 9.2986 11.7887L10.3436 11.4712C10.3807 11.4599 10.42 11.4584 10.4578 11.4669C10.4957 11.4754 10.5306 11.4936 10.5592 11.5197C10.5879 11.5458 10.6092 11.579 10.6212 11.6158C10.6331 11.6527 10.6352 11.6921 10.6273 11.73L9.82797 15.5969C9.77797 15.8387 10.0998 15.9706 10.2342 15.7637L10.3236 15.625L15.2767 5.74062C15.2953 5.70338 15.3031 5.66168 15.2993 5.62023C15.2954 5.57878 15.28 5.53925 15.2548 5.50608C15.2297 5.47292 15.1957 5.44746 15.1569 5.43258C15.118 5.4177 15.0757 5.41399 15.0348 5.42187L13.293 5.7575C13.2555 5.76467 13.2168 5.76211 13.1805 5.75005C13.1443 5.73799 13.1118 5.71684 13.0861 5.68862C13.0604 5.6604 13.0423 5.62606 13.0337 5.58888C13.0251 5.55169 13.0261 5.51291 13.0367 5.47625L14.173 1.535C14.1837 1.49821 14.1847 1.45929 14.176 1.42198C14.1673 1.38467 14.1492 1.35022 14.1233 1.32197C14.0974 1.29371 14.0647 1.27259 14.0283 1.26064C13.9919 1.24869 13.9531 1.24632 13.9155 1.25375L13.9148 1.25437Z" fill="url(#paint1_linear_2005_1528)"/>
<defs>
<linearGradient id="paint0_linear_2005_1528" x1="1.10509" y1="2.65673" x2="11.3271" y2="16.539" gradientUnits="userSpaceOnUse">
<stop stop-color="#41D1FF"/>
<stop offset="1" stop-color="#BD34FE"/>
</linearGradient>
<linearGradient id="paint1_linear_2005_1528" x1="9.52608" y1="1.57736" x2="11.3752" y2="14.262" gradientUnits="userSpaceOnUse">
<stop stop-color="#FFEA83"/>
<stop offset="0.083" stop-color="#FFDD35"/>
<stop offset="1" stop-color="#FFA800"/>
</linearGradient>
</defs>
</svg>
